<svg id="Layer_1" xmlns="http://www.w3.org/2000/svg" xmlns:xlink="http://www.w3.org/1999/xlink" viewBox="0 0 1468 368.5"><style>.st2{fill-rule:evenodd;clip-rule:evenodd;fill:#fff}</style><path d="M1467.5-.4H.5v352h188.6c1.2.5 2.3 1.3 3 2.4l7.2 11.4c2.3 3.6 7.5 3.8 10 .3l9.6-13.3c.2-.3.4-.5.7-.8h1248V-.4z" fill-rule="evenodd" clip-rule="evenodd" fill="#09f"/><defs><path id="SVGID_1_" d="M.5-.4h1467v352H.5z"/></defs><clipPath id="SVGID_2_"><use xlink:href="#SVGID_1_" overflow="visible"/></clipPath><g style="transform:translateY(13px)" opacity=".1"><path class="st2" d="M1050.4 340.9l-8.6 13.7c-1.4 2.2-4.3 2.7-6.4 1.2l-6.8-5.1c-.6-.5-1.5-.5-2.1 0l-9.2 7c-1.2.9-2.8-.5-2-1.9l8.6-13.7c1.4-2.2 4.3-2.7 6.4-1.2l6.8 5.1c.6.5 1.5.5 2.1 0l9.2-7c1.2-.9 2.9.6 2 1.9zm0-24.9l-8.6 13.7c-1.4 2.2-4.3 2.7-6.4 1.2l-6.8-5.1c-.6-.5-1.5-.5-2.1 0l-9.2 7c-1.2.9-2.8-.5-2-1.9l8.6-13.7c1.4-2.2 4.3-2.7 6.4-1.2l6.8 5.1c.6.5 1.5.5 2.1 0l9.2-7c1.2-.9 2.9.6 2 1.9zm0-24.9l-8.6 13.7c-1.4 2.2-4.3 2.7-6.4 1.2l-6.8-5.1c-.6-.5-1.5-.5-2.1 0l-9.2 7c-1.2.9-2.8-.5-2-1.9l8.6-13.7c1.4-2.2 4.3-2.7 6.4-1.2l6.8 5.1c.6.5 1.5.5 2.1 0l9.2-7c1.2-.9 2.9.6 2 1.9zm0-25l-8.6 13.7c-1.4 2.2-4.3 2.7-6.4 1.2l-6.8-5.1c-.6-.5-1.5-.5-2.1 0l-9.2 7c-1.2.9-2.8-.5-2-1.9l8.6-13.7c1.4-2.2 4.3-2.7 6.4-1.2l6.8 5.1c.6.5 1.5.5 2.1 0l9.2-7c1.2-.9 2.9.6 2 1.9zm0-24.9l-8.6 13.7c-1.4 2.2-4.3 2.7-6.4 1.2l-6.8-5.1c-.6-.5-1.5-.5-2.1 0l-9.2 7c-1.2.9-2.8-.5-2-1.9l8.6-13.7c1.4-2.2 4.3-2.7 6.4-1.2l6.8 5.1c.6.5 1.5.5 2.1 0l9.2-7c1.2-.9 2.9.6 2 1.9zm0-24.9l-8.6 13.7c-1.4 2.2-4.3 2.7-6.4 1.2l-6.8-5.1c-.6-.5-1.5-.5-2.1 0l-9.2 7c-1.2.9-2.8-.5-2-1.9l8.6-13.7c1.4-2.2 4.3-2.7 6.4-1.2l6.8 5.1c.6.5 1.5.5 2.1 0l9.2-7c1.2-.9 2.9.6 2 1.9zm0-25l-8.6 13.7c-1.4 2.2-4.3 2.7-6.4 1.2l-6.8-5.1c-.6-.5-1.5-.5-2.1 0l-9.2 7c-1.2.9-2.8-.5-2-1.9l8.6-13.7c1.4-2.2 4.3-2.7 6.4-1.2l6.8 5.1c.6.5 1.5.5 2.1 0l9.2-7c1.2-.9 2.9.6 2 1.9zm0-24.9l-8.6 13.7c-1.4 2.2-4.3 2.7-6.4 1.2l-6.8-5.1c-.6-.5-1.5-.5-2.1 0l-9.2 7c-1.2.9-2.8-.5-2-1.9l8.6-13.7c1.4-2.2 4.3-2.7 6.4-1.2l6.8 5.1c.6.5 1.5.5 2.1 0l9.2-7c1.2-.9 2.9.6 2 1.9zm35.8 174.5l-8.6 13.7c-1.4 2.2-4.3 2.7-6.4 1.2l-6.8-5.1c-.6-.5-1.5-.5-2.1 0l-9.2 7c-1.2.9-2.8-.5-2-1.9l8.6-13.7c1.4-2.2 4.3-2.7 6.4-1.2l6.8 5.1c.6.5 1.5.5 2.1 0l9.2-7c1.2-.9 2.8.6 2 1.9zm0-24.9l-8.6 13.7c-1.4 2.2-4.3 2.7-6.4 1.2l-6.8-5.1c-.6-.5-1.5-.5-2.1 0l-9.2 7c-1.2.9-2.8-.5-2-1.9l8.6-13.7c1.4-2.2 4.3-2.7 6.4-1.2l6.8 5.1c.6.5 1.5.5 2.1 0l9.2-7c1.2-.9 2.8.6 2 1.9zm0-24.9l-8.6 13.7c-1.4 2.2-4.3 2.7-6.4 1.2l-6.8-5.1c-.6-.5-1.5-.5-2.1 0l-9.2 7c-1.2.9-2.8-.5-2-1.9l8.6-13.7c1.4-2.2 4.3-2.7 6.4-1.2l6.8 5.1c.6.5 1.5.5 2.1 0l9.2-7c1.2-.9 2.8.6 2 1.9zm0-25l-8.6 13.7c-1.4 2.2-4.3 2.7-6.4 1.2l-6.8-5.1c-.6-.5-1.5-.5-2.1 0l-9.2 7c-1.2.9-2.8-.5-2-1.9l8.6-13.7c1.4-2.2 4.3-2.7 6.4-1.2l6.8 5.1c.6.5 1.5.5 2.1 0l9.2-7c1.2-.9 2.8.6 2 1.9zm0-24.9l-8.6 13.7c-1.4 2.2-4.3 2.7-6.4 1.2l-6.8-5.1c-.6-.5-1.5-.5-2.1 0l-9.2 7c-1.2.9-2.8-.5-2-1.9l8.6-13.7c1.4-2.2 4.3-2.7 6.4-1.2l6.8 5.1c.6.5 1.5.5 2.1 0l9.2-7c1.2-.9 2.8.6 2 1.9zm0-24.9l-8.6 13.7c-1.4 2.2-4.3 2.7-6.4 1.2l-6.8-5.1c-.6-.5-1.5-.5-2.1 0l-9.2 7c-1.2.9-2.8-.5-2-1.9l8.6-13.7c1.4-2.2 4.3-2.7 6.4-1.2l6.8 5.1c.6.5 1.5.5 2.1 0l9.2-7c1.2-.9 2.8.6 2 1.9zm0-25l-8.6 13.7c-1.4 2.2-4.3 2.7-6.4 1.2l-6.8-5.1c-.6-.5-1.5-.5-2.1 0l-9.2 7c-1.2.9-2.8-.5-2-1.9l8.6-13.7c1.4-2.2 4.3-2.7 6.4-1.2l6.8 5.1c.6.5 1.5.5 2.1 0l9.2-7c1.2-.9 2.8.6 2 1.9zm0-24.9l-8.6 13.7c-1.4 2.2-4.3 2.7-6.4 1.2l-6.8-5.1c-.6-.5-1.5-.5-2.1 0l-9.2 7c-1.2.9-2.8-.5-2-1.9l8.6-13.7c1.4-2.2 4.3-2.7 6.4-1.2l6.8 5.1c.6.5 1.5.5 2.1 0l9.2-7c1.2-.9 2.8.6 2 1.9zm35.8 174.5l-8.6 13.7c-1.4 2.2-4.3 2.7-6.4 1.2l-6.8-5.1c-.6-.5-1.5-.5-2.1 0l-9.2 7c-1.2.9-2.8-.5-2-1.9l8.6-13.7c1.4-2.2 4.3-2.7 6.4-1.2l6.8 5.1c.6.5 1.5.5 2.1 0l9.2-7c1.2-.9 2.8.6 2 1.9zm0-24.9l-8.6 13.7c-1.4 2.2-4.3 2.7-6.4 1.2l-6.8-5.1c-.6-.5-1.5-.5-2.1 0l-9.2 7c-1.2.9-2.8-.5-2-1.9l8.6-13.7c1.4-2.2 4.3-2.7 6.4-1.2l6.8 5.1c.6.5 1.5.5 2.1 0l9.2-7c1.2-.9 2.8.6 2 1.9zm0-24.9l-8.6 13.7c-1.4 2.2-4.3 2.7-6.4 1.2l-6.8-5.1c-.6-.5-1.5-.5-2.1 0l-9.2 7c-1.2.9-2.8-.5-2-1.9l8.6-13.7c1.4-2.2 4.3-2.7 6.4-1.2l6.8 5.1c.6.5 1.5.5 2.1 0l9.2-7c1.2-.9 2.8.6 2 1.9zm0-25l-8.6 13.7c-1.4 2.2-4.3 2.7-6.4 1.2l-6.8-5.1c-.6-.5-1.5-.5-2.1 0l-9.2 7c-1.2.9-2.8-.5-2-1.9l8.6-13.7c1.4-2.2 4.3-2.7 6.4-1.2l6.8 5.1c.6.5 1.5.5 2.1 0l9.2-7c1.2-.9 2.8.6 2 1.9zm0-24.9l-8.6 13.7c-1.4 2.2-4.3 2.7-6.4 1.2l-6.8-5.1c-.6-.5-1.5-.5-2.1 0l-9.2 7c-1.2.9-2.8-.5-2-1.9l8.6-13.7c1.4-2.2 4.3-2.7 6.4-1.2l6.8 5.1c.6.5 1.5.5 2.1 0l9.2-7c1.2-.9 2.8.6 2 1.9zm0-24.9l-8.6 13.7c-1.4 2.2-4.3 2.7-6.4 1.2l-6.8-5.1c-.6-.5-1.5-.5-2.1 0l-9.2 7c-1.2.9-2.8-.5-2-1.9l8.6-13.7c1.4-2.2 4.3-2.7 6.4-1.2l6.8 5.1c.6.5 1.5.5 2.1 0l9.2-7c1.2-.9 2.8.6 2 1.9zm0-25l-8.6 13.7c-1.4 2.2-4.3 2.7-6.4 1.2l-6.8-5.1c-.6-.5-1.5-.5-2.1 0l-9.2 7c-1.2.9-2.8-.5-2-1.9l8.6-13.7c1.4-2.2 4.3-2.7 6.4-1.2l6.8 5.1c.6.5 1.5.5 2.1 0l9.2-7c1.2-.9 2.8.6 2 1.9zm0-24.9l-8.6 13.7c-1.4 2.2-4.3 2.7-6.4 1.2l-6.8-5.1c-.6-.5-1.5-.5-2.1 0l-9.2 7c-1.2.9-2.8-.5-2-1.9l8.6-13.7c1.4-2.2 4.3-2.7 6.4-1.2l6.8 5.1c.6.5 1.5.5 2.1 0l9.2-7c1.2-.9 2.8.6 2 1.9zm35.8 174.5l-8.6 13.7c-1.4 2.2-4.3 2.7-6.4 1.2l-6.8-5.1c-.6-.5-1.5-.5-2.1 0l-9.2 7c-1.2.9-2.8-.5-2-1.9l8.6-13.7c1.4-2.2 4.3-2.7 6.4-1.2l6.8 5.1c.6.5 1.5.5 2.1 0l9.2-7c1.2-.9 2.8.6 2 1.9zm0-24.9l-8.6 13.7c-1.4 2.2-4.3 2.7-6.4 1.2l-6.8-5.1c-.6-.5-1.5-.5-2.1 0l-9.2 7c-1.2.9-2.8-.5-2-1.9l8.6-13.7c1.4-2.2 4.3-2.7 6.4-1.2l6.8 5.1c.6.5 1.5.5 2.1 0l9.2-7c1.2-.9 2.8.6 2 1.9zm0-24.9l-8.6 13.7c-1.4 2.2-4.3 2.7-6.4 1.2l-6.8-5.1c-.6-.5-1.5-.5-2.1 0l-9.2 7c-1.2.9-2.8-.5-2-1.9l8.6-13.7c1.4-2.2 4.3-2.7 6.4-1.2l6.8 5.1c.6.5 1.5.5 2.1 0l9.2-7c1.2-.9 2.8.6 2 1.9zm0-25l-8.6 13.7c-1.4 2.2-4.3 2.7-6.4 1.2l-6.8-5.1c-.6-.5-1.5-.5-2.1 0l-9.2 7c-1.2.9-2.8-.5-2-1.9l8.6-13.7c1.4-2.2 4.3-2.7 6.4-1.2l6.8 5.1c.6.5 1.5.5 2.1 0l9.2-7c1.2-.9 2.8.6 2 1.9zm0-24.9l-8.6 13.7c-1.4 2.2-4.3 2.7-6.4 1.2l-6.8-5.1c-.6-.5-1.5-.5-2.1 0l-9.2 7c-1.2.9-2.8-.5-2-1.9l8.6-13.7c1.4-2.2 4.3-2.7 6.4-1.2l6.8 5.1c.6.5 1.5.5 2.1 0l9.2-7c1.2-.9 2.8.6 2 1.9zm0-24.9l-8.6 13.7c-1.4 2.2-4.3 2.7-6.4 1.2l-6.8-5.1c-.6-.5-1.5-.5-2.1 0l-9.2 7c-1.2.9-2.8-.5-2-1.9l8.6-13.7c1.4-2.2 4.3-2.7 6.4-1.2l6.8 5.1c.6.5 1.5.5 2.1 0l9.2-7c1.2-.9 2.8.6 2 1.9zm0-25l-8.6 13.7c-1.4 2.2-4.3 2.7-6.4 1.2l-6.8-5.1c-.6-.5-1.5-.5-2.1 0l-9.2 7c-1.2.9-2.8-.5-2-1.9l8.6-13.7c1.4-2.2 4.3-2.7 6.4-1.2l6.8 5.1c.6.5 1.5.5 2.1 0l9.2-7c1.2-.9 2.8.6 2 1.9zm0-24.9l-8.6 13.7c-1.4 2.2-4.3 2.7-6.4 1.2l-6.8-5.1c-.6-.5-1.5-.5-2.1 0l-9.2 7c-1.2.9-2.8-.5-2-1.9l8.6-13.7c1.4-2.2 4.3-2.7 6.4-1.2l6.8 5.1c.6.5 1.5.5 2.1 0l9.2-7c1.2-.9 2.8.6 2 1.9zm35.7 174.5l-8.6 13.7c-1.4 2.2-4.3 2.7-6.4 1.2l-6.8-5.1c-.6-.5-1.5-.5-2.1 0l-9.2 7c-1.2.9-2.8-.5-2-1.9l8.6-13.7c1.4-2.2 4.3-2.7 6.4-1.2l6.8 5.1c.6.5 1.5.5 2.1 0l9.2-7c1.3-.9 2.9.6 2 1.9zm0-24.9l-8.6 13.7c-1.4 2.2-4.3 2.7-6.4 1.2l-6.8-5.1c-.6-.5-1.5-.5-2.1 0l-9.2 7c-1.2.9-2.8-.5-2-1.9l8.6-13.7c1.4-2.2 4.3-2.7 6.4-1.2l6.8 5.1c.6.5 1.5.5 2.1 0l9.2-7c1.3-.9 2.9.6 2 1.9zm0-24.9l-8.6 13.7c-1.4 2.2-4.3 2.7-6.4 1.2l-6.8-5.1c-.6-.5-1.5-.5-2.1 0l-9.2 7c-1.2.9-2.8-.5-2-1.9l8.6-13.7c1.4-2.2 4.3-2.7 6.4-1.2l6.8 5.1c.6.5 1.5.5 2.1 0l9.2-7c1.3-.9 2.9.6 2 1.9zm0-25l-8.6 13.7c-1.4 2.2-4.3 2.7-6.4 1.2l-6.8-5.1c-.6-.5-1.5-.5-2.1 0l-9.2 7c-1.2.9-2.8-.5-2-1.9l8.6-13.7c1.4-2.2 4.3-2.7 6.4-1.2l6.8 5.1c.6.5 1.5.5 2.1 0l9.2-7c1.3-.9 2.9.6 2 1.9zm0-24.9l-8.6 13.7c-1.4 2.2-4.3 2.7-6.4 1.2l-6.8-5.1c-.6-.5-1.5-.5-2.1 0l-9.2 7c-1.2.9-2.8-.5-2-1.9l8.6-13.7c1.4-2.2 4.3-2.7 6.4-1.2l6.8 5.1c.6.5 1.5.5 2.1 0l9.2-7c1.3-.9 2.9.6 2 1.9zm0-24.9l-8.6 13.7c-1.4 2.2-4.3 2.7-6.4 1.2l-6.8-5.1c-.6-.5-1.5-.5-2.1 0l-9.2 7c-1.2.9-2.8-.5-2-1.9l8.6-13.7c1.4-2.2 4.3-2.7 6.4-1.2l6.8 5.1c.6.5 1.5.5 2.1 0l9.2-7c1.3-.9 2.9.6 2 1.9zm0-25l-8.6 13.7c-1.4 2.2-4.3 2.7-6.4 1.2l-6.8-5.1c-.6-.5-1.5-.5-2.1 0l-9.2 7c-1.2.9-2.8-.5-2-1.9l8.6-13.7c1.4-2.2 4.3-2.7 6.4-1.2l6.8 5.1c.6.5 1.5.5 2.1 0l9.2-7c1.3-.9 2.9.6 2 1.9zm0-24.9l-8.6 13.7c-1.4 2.2-4.3 2.7-6.4 1.2l-6.8-5.1c-.6-.5-1.5-.5-2.1 0l-9.2 7c-1.2.9-2.8-.5-2-1.9l8.6-13.7c1.4-2.2 4.3-2.7 6.4-1.2l6.8 5.1c.6.5 1.5.5 2.1 0l9.2-7c1.3-.9 2.9.6 2 1.9zm35.8 174.5l-8.6 13.7c-1.4 2.2-4.3 2.7-6.4 1.2l-6.8-5.1c-.6-.5-1.5-.5-2.1 0l-9.2 7c-1.2.9-2.8-.5-2-1.9l8.6-13.7c1.4-2.2 4.3-2.7 6.4-1.2l6.8 5.1c.6.5 1.5.5 2.1 0l9.2-7c1.2-.9 2.8.6 2 1.9zm0-24.9l-8.6 13.7c-1.4 2.2-4.3 2.7-6.4 1.2l-6.8-5.1c-.6-.5-1.5-.5-2.1 0l-9.2 7c-1.2.9-2.8-.5-2-1.9l8.6-13.7c1.4-2.2 4.3-2.7 6.4-1.2l6.8 5.1c.6.5 1.5.5 2.1 0l9.2-7c1.2-.9 2.8.6 2 1.9zm0-24.9l-8.6 13.7c-1.4 2.2-4.3 2.7-6.4 1.2l-6.8-5.1c-.6-.5-1.5-.5-2.1 0l-9.2 7c-1.2.9-2.8-.5-2-1.9l8.6-13.7c1.4-2.2 4.3-2.7 6.4-1.2l6.8 5.1c.6.5 1.5.5 2.1 0l9.2-7c1.2-.9 2.8.6 2 1.9zm0-25l-8.6 13.7c-1.4 2.2-4.3 2.7-6.4 1.2l-6.8-5.1c-.6-.5-1.5-.5-2.1 0l-9.2 7c-1.2.9-2.8-.5-2-1.9l8.6-13.7c1.4-2.2 4.3-2.7 6.4-1.2l6.8 5.1c.6.5 1.5.5 2.1 0l9.2-7c1.2-.9 2.8.6 2 1.9zm0-24.9l-8.6 13.7c-1.4 2.2-4.3 2.7-6.4 1.2l-6.8-5.1c-.6-.5-1.5-.5-2.1 0l-9.2 7c-1.2.9-2.8-.5-2-1.9l8.6-13.7c1.4-2.2 4.3-2.7 6.4-1.2l6.8 5.1c.6.5 1.5.5 2.1 0l9.2-7c1.2-.9 2.8.6 2 1.9zm0-24.9l-8.6 13.7c-1.4 2.2-4.3 2.7-6.4 1.2l-6.8-5.1c-.6-.5-1.5-.5-2.1 0l-9.2 7c-1.2.9-2.8-.5-2-1.9l8.6-13.7c1.4-2.2 4.3-2.7 6.4-1.2l6.8 5.1c.6.5 1.5.5 2.1 0l9.2-7c1.2-.9 2.8.6 2 1.9zm0-25l-8.6 13.7c-1.4 2.2-4.3 2.7-6.4 1.2l-6.8-5.1c-.6-.5-1.5-.5-2.1 0l-9.2 7c-1.2.9-2.8-.5-2-1.9l8.6-13.7c1.4-2.2 4.3-2.7 6.4-1.2l6.8 5.1c.6.5 1.5.5 2.1 0l9.2-7c1.2-.9 2.8.6 2 1.9zm0-24.9l-8.6 13.7c-1.4 2.2-4.3 2.7-6.4 1.2l-6.8-5.1c-.6-.5-1.5-.5-2.1 0l-9.2 7c-1.2.9-2.8-.5-2-1.9l8.6-13.7c1.4-2.2 4.3-2.7 6.4-1.2l6.8 5.1c.6.5 1.5.5 2.1 0l9.2-7c1.2-.9 2.8.6 2 1.9zm35.8 174.5l-8.6 13.7c-1.4 2.2-4.3 2.7-6.4 1.2l-6.8-5.1c-.6-.5-1.5-.5-2.1 0l-9.2 7c-1.2.9-2.8-.5-2-1.9l8.6-13.7c1.4-2.2 4.3-2.7 6.4-1.2l6.8 5.1c.6.5 1.5.5 2.1 0l9.2-7c1.2-.9 2.8.6 2 1.9zm0-24.9l-8.6 13.7c-1.4 2.2-4.3 2.7-6.4 1.2l-6.8-5.1c-.6-.5-1.5-.5-2.1 0l-9.2 7c-1.2.9-2.8-.5-2-1.9l8.6-13.7c1.4-2.2 4.3-2.7 6.4-1.2l6.8 5.1c.6.5 1.5.5 2.1 0l9.2-7c1.2-.9 2.8.6 2 1.9zm0-24.9l-8.6 13.7c-1.4 2.2-4.3 2.7-6.4 1.2l-6.8-5.1c-.6-.5-1.5-.5-2.1 0l-9.2 7c-1.2.9-2.8-.5-2-1.9l8.6-13.7c1.4-2.2 4.3-2.7 6.4-1.2l6.8 5.1c.6.5 1.5.5 2.1 0l9.2-7c1.2-.9 2.8.6 2 1.9zm0-25l-8.6 13.7c-1.4 2.2-4.3 2.7-6.4 1.2l-6.8-5.1c-.6-.5-1.5-.5-2.1 0l-9.2 7c-1.2.9-2.8-.5-2-1.9l8.6-13.7c1.4-2.2 4.3-2.7 6.4-1.2l6.8 5.1c.6.5 1.5.5 2.1 0l9.2-7c1.2-.9 2.8.6 2 1.9zm0-24.9l-8.6 13.7c-1.4 2.2-4.3 2.7-6.4 1.2l-6.8-5.1c-.6-.5-1.5-.5-2.1 0l-9.2 7c-1.2.9-2.8-.5-2-1.9l8.6-13.7c1.4-2.2 4.3-2.7 6.4-1.2l6.8 5.1c.6.5 1.5.5 2.1 0l9.2-7c1.2-.9 2.8.6 2 1.9zm0-24.9l-8.6 13.7c-1.4 2.2-4.3 2.7-6.4 1.2l-6.8-5.1c-.6-.5-1.5-.5-2.1 0l-9.2 7c-1.2.9-2.8-.5-2-1.9l8.6-13.7c1.4-2.2 4.3-2.7 6.4-1.2l6.8 5.1c.6.5 1.5.5 2.1 0l9.2-7c1.2-.9 2.8.6 2 1.9zm0-25l-8.6 13.7c-1.4 2.2-4.3 2.7-6.4 1.2l-6.8-5.1c-.6-.5-1.5-.5-2.1 0l-9.2 7c-1.2.9-2.8-.5-2-1.9l8.6-13.7c1.4-2.2 4.3-2.7 6.4-1.2l6.8 5.1c.6.5 1.5.5 2.1 0l9.2-7c1.2-.9 2.8.6 2 1.9zm0-24.9l-8.6 13.7c-1.4 2.2-4.3 2.7-6.4 1.2l-6.8-5.1c-.6-.5-1.5-.5-2.1 0l-9.2 7c-1.2.9-2.8-.5-2-1.9l8.6-13.7c1.4-2.2 4.3-2.7 6.4-1.2l6.8 5.1c.6.5 1.5.5 2.1 0l9.2-7c1.2-.9 2.8.6 2 1.9zm35.8 174.5l-8.6 13.7c-1.4 2.2-4.3 2.7-6.4 1.2l-6.8-5.1c-.6-.5-1.5-.5-2.1 0l-9.2 7c-1.2.9-2.8-.5-2-1.9l8.6-13.7c1.4-2.2 4.3-2.7 6.4-1.2l6.8 5.1c.6.5 1.5.5 2.1 0l9.2-7c1.2-.9 2.8.6 2 1.9zm0-24.9l-8.6 13.7c-1.4 2.2-4.3 2.7-6.4 1.2l-6.8-5.1c-.6-.5-1.5-.5-2.1 0l-9.2 7c-1.2.9-2.8-.5-2-1.9l8.6-13.7c1.4-2.2 4.3-2.7 6.4-1.2l6.8 5.1c.6.5 1.5.5 2.1 0l9.2-7c1.2-.9 2.8.6 2 1.9zm0-24.9l-8.6 13.7c-1.4 2.2-4.3 2.7-6.4 1.2l-6.8-5.1c-.6-.5-1.5-.5-2.1 0l-9.2 7c-1.2.9-2.8-.5-2-1.9l8.6-13.7c1.4-2.2 4.3-2.7 6.4-1.2l6.8 5.1c.6.5 1.5.5 2.1 0l9.2-7c1.2-.9 2.8.6 2 1.9zm0-25l-8.6 13.7c-1.4 2.2-4.3 2.7-6.4 1.2l-6.8-5.1c-.6-.5-1.5-.5-2.1 0l-9.2 7c-1.2.9-2.8-.5-2-1.9l8.6-13.7c1.4-2.2 4.3-2.7 6.4-1.2l6.8 5.1c.6.5 1.5.5 2.1 0l9.2-7c1.2-.9 2.8.6 2 1.9zm0-24.9l-8.6 13.7c-1.4 2.2-4.3 2.7-6.4 1.2l-6.8-5.1c-.6-.5-1.5-.5-2.1 0l-9.2 7c-1.2.9-2.8-.5-2-1.9l8.6-13.7c1.4-2.2 4.3-2.7 6.4-1.2l6.8 5.1c.6.5 1.5.5 2.1 0l9.2-7c1.2-.9 2.8.6 2 1.9zm0-24.9l-8.6 13.7c-1.4 2.2-4.3 2.7-6.4 1.2l-6.8-5.1c-.6-.5-1.5-.5-2.1 0l-9.2 7c-1.2.9-2.8-.5-2-1.9l8.6-13.7c1.4-2.2 4.3-2.7 6.4-1.2l6.8 5.1c.6.5 1.5.5 2.1 0l9.2-7c1.2-.9 2.8.6 2 1.9zm0-25l-8.6 13.7c-1.4 2.2-4.3 2.7-6.4 1.2l-6.8-5.1c-.6-.5-1.5-.5-2.1 0l-9.2 7c-1.2.9-2.8-.5-2-1.9l8.6-13.7c1.4-2.2 4.3-2.7 6.4-1.2l6.8 5.1c.6.5 1.5.5 2.1 0l9.2-7c1.2-.9 2.8.6 2 1.9zm0-24.9l-8.6 13.7c-1.4 2.2-4.3 2.7-6.4 1.2l-6.8-5.1c-.6-.5-1.5-.5-2.1 0l-9.2 7c-1.2.9-2.8-.5-2-1.9l8.6-13.7c1.4-2.2 4.3-2.7 6.4-1.2l6.8 5.1c.6.5 1.5.5 2.1 0l9.2-7c1.2-.9 2.8.6 2 1.9zm35.7 174.5l-8.6 13.7c-1.4 2.2-4.3 2.7-6.4 1.2l-6.8-5.1c-.6-.5-1.5-.5-2.1 0l-9.2 7c-1.2.9-2.8-.5-2-1.9l8.6-13.7c1.4-2.2 4.3-2.7 6.4-1.2l6.8 5.1c.6.5 1.5.5 2.1 0l9.2-7c1.3-.9 2.9.6 2 1.9zm0-24.9l-8.6 13.7c-1.4 2.2-4.3 2.7-6.4 1.2l-6.8-5.1c-.6-.5-1.5-.5-2.1 0l-9.2 7c-1.2.9-2.8-.5-2-1.9l8.6-13.7c1.4-2.2 4.3-2.7 6.4-1.2l6.8 5.1c.6.5 1.5.5 2.1 0l9.2-7c1.3-.9 2.9.6 2 1.9zm0-24.9l-8.6 13.7c-1.4 2.2-4.3 2.7-6.4 1.2l-6.8-5.1c-.6-.5-1.5-.5-2.1 0l-9.2 7c-1.2.9-2.8-.5-2-1.9l8.6-13.7c1.4-2.2 4.3-2.7 6.4-1.2l6.8 5.1c.6.5 1.5.5 2.1 0l9.2-7c1.3-.9 2.9.6 2 1.9zm0-25l-8.6 13.7c-1.4 2.2-4.3 2.7-6.4 1.2l-6.8-5.1c-.6-.5-1.5-.5-2.1 0l-9.2 7c-1.2.9-2.8-.5-2-1.9l8.6-13.7c1.4-2.2 4.3-2.7 6.4-1.2l6.8 5.1c.6.5 1.5.5 2.1 0l9.2-7c1.3-.9 2.9.6 2 1.9zm0-24.9l-8.6 13.7c-1.4 2.2-4.3 2.7-6.4 1.2l-6.8-5.1c-.6-.5-1.5-.5-2.1 0l-9.2 7c-1.2.9-2.8-.5-2-1.9l8.6-13.7c1.4-2.2 4.3-2.7 6.4-1.2l6.8 5.1c.6.5 1.5.5 2.1 0l9.2-7c1.3-.9 2.9.6 2 1.9zm0-24.9L1328 230c-1.4 2.2-4.3 2.7-6.4 1.2l-6.8-5.1c-.6-.5-1.5-.5-2.1 0l-9.2 7c-1.2.9-2.8-.5-2-1.9l8.6-13.7c1.4-2.2 4.3-2.7 6.4-1.2l6.8 5.1c.6.5 1.5.5 2.1 0l9.2-7c1.3-.9 2.9.6 2 1.9zm0-25L1328 205c-1.4 2.2-4.3 2.7-6.4 1.2l-6.8-5.1c-.6-.5-1.5-.5-2.1 0l-9.2 7c-1.2.9-2.8-.5-2-1.9l8.6-13.7c1.4-2.2 4.3-2.7 6.4-1.2l6.8 5.1c.6.5 1.5.5 2.1 0l9.2-7c1.3-.9 2.9.6 2 1.9zm0-24.9l-8.6 13.7c-1.4 2.2-4.3 2.7-6.4 1.2l-6.8-5.1c-.6-.5-1.5-.5-2.1 0l-9.2 7c-1.2.9-2.8-.5-2-1.9l8.6-13.7c1.4-2.2 4.3-2.7 6.4-1.2l6.8 5.1c.6.5 1.5.5 2.1 0l9.2-7c1.3-.9 2.9.6 2 1.9zm35.8 174.5l-8.6 13.7c-1.4 2.2-4.3 2.7-6.4 1.2l-6.8-5.1c-.6-.5-1.5-.5-2.1 0l-9.2 7c-1.2.9-2.8-.5-2-1.9l8.6-13.7c1.4-2.2 4.3-2.7 6.4-1.2l6.8 5.1c.6.5 1.5.5 2.1 0l9.2-7c1.2-.9 2.9.6 2 1.9zm0-24.9l-8.6 13.7c-1.4 2.2-4.3 2.7-6.4 1.2l-6.8-5.1c-.6-.5-1.5-.5-2.1 0l-9.2 7c-1.2.9-2.8-.5-2-1.9l8.6-13.7c1.4-2.2 4.3-2.7 6.4-1.2l6.8 5.1c.6.5 1.5.5 2.1 0l9.2-7c1.2-.9 2.9.6 2 1.9zm0-24.9l-8.6 13.7c-1.4 2.2-4.3 2.7-6.4 1.2l-6.8-5.1c-.6-.5-1.5-.5-2.1 0l-9.2 7c-1.2.9-2.8-.5-2-1.9l8.6-13.7c1.4-2.2 4.3-2.7 6.4-1.2l6.8 5.1c.6.5 1.5.5 2.1 0l9.2-7c1.2-.9 2.9.6 2 1.9zm0-25l-8.6 13.7c-1.4 2.2-4.3 2.7-6.4 1.2l-6.8-5.1c-.6-.5-1.5-.5-2.1 0l-9.2 7c-1.2.9-2.8-.5-2-1.9l8.6-13.7c1.4-2.2 4.3-2.7 6.4-1.2l6.8 5.1c.6.5 1.5.5 2.1 0l9.2-7c1.2-.9 2.9.6 2 1.9zm0-24.9l-8.6 13.7c-1.4 2.2-4.3 2.7-6.4 1.2l-6.8-5.1c-.6-.5-1.5-.5-2.1 0l-9.2 7c-1.2.9-2.8-.5-2-1.9l8.6-13.7c1.4-2.2 4.3-2.7 6.4-1.2l6.8 5.1c.6.5 1.5.5 2.1 0l9.2-7c1.2-.9 2.9.6 2 1.9zm0-24.9l-8.6 13.7c-1.4 2.2-4.3 2.7-6.4 1.2l-6.8-5.1c-.6-.5-1.5-.5-2.1 0l-9.2 7c-1.2.9-2.8-.5-2-1.9l8.6-13.7c1.4-2.2 4.3-2.7 6.4-1.2l6.8 5.1c.6.5 1.5.5 2.1 0l9.2-7c1.2-.9 2.9.6 2 1.9zm0-25l-8.6 13.7c-1.4 2.2-4.3 2.7-6.4 1.2l-6.8-5.1c-.6-.5-1.5-.5-2.1 0l-9.2 7c-1.2.9-2.8-.5-2-1.9l8.6-13.7c1.4-2.2 4.3-2.7 6.4-1.2l6.8 5.1c.6.5 1.5.5 2.1 0l9.2-7c1.2-.9 2.9.6 2 1.9zm0-24.9l-8.6 13.7c-1.4 2.2-4.3 2.7-6.4 1.2l-6.8-5.1c-.6-.5-1.5-.5-2.1 0l-9.2 7c-1.2.9-2.8-.5-2-1.9l8.6-13.7c1.4-2.2 4.3-2.7 6.4-1.2l6.8 5.1c.6.5 1.5.5 2.1 0l9.2-7c1.2-.9 2.9.6 2 1.9zm35.8 174.5l-8.6 13.7c-1.4 2.2-4.3 2.7-6.4 1.2l-6.8-5.1c-.6-.5-1.5-.5-2.1 0l-9.2 7c-1.2.9-2.8-.5-2-1.9l8.6-13.7c1.4-2.2 4.3-2.7 6.4-1.2l6.8 5.1c.6.5 1.5.5 2.1 0l9.2-7c1.2-.9 2.8.6 2 1.9zm0-24.9l-8.6 13.7c-1.4 2.2-4.3 2.7-6.4 1.2l-6.8-5.1c-.6-.5-1.5-.5-2.1 0l-9.2 7c-1.2.9-2.8-.5-2-1.9l8.6-13.7c1.4-2.2 4.3-2.7 6.4-1.2l6.8 5.1c.6.5 1.5.5 2.1 0l9.2-7c1.2-.9 2.8.6 2 1.9zm0-24.9l-8.6 13.7c-1.4 2.2-4.3 2.7-6.4 1.2l-6.8-5.1c-.6-.5-1.5-.5-2.1 0l-9.2 7c-1.2.9-2.8-.5-2-1.9l8.6-13.7c1.4-2.2 4.3-2.7 6.4-1.2l6.8 5.1c.6.5 1.5.5 2.1 0l9.2-7c1.2-.9 2.8.6 2 1.9zm0-25l-8.6 13.7c-1.4 2.2-4.3 2.7-6.4 1.2l-6.8-5.1c-.6-.5-1.5-.5-2.1 0l-9.2 7c-1.2.9-2.8-.5-2-1.9l8.6-13.7c1.4-2.2 4.3-2.7 6.4-1.2l6.8 5.1c.6.5 1.5.5 2.1 0l9.2-7c1.2-.9 2.8.6 2 1.9zm0-24.9l-8.6 13.7c-1.4 2.2-4.3 2.7-6.4 1.2l-6.8-5.1c-.6-.5-1.5-.5-2.1 0l-9.2 7c-1.2.9-2.8-.5-2-1.9l8.6-13.7c1.4-2.2 4.3-2.7 6.4-1.2l6.8 5.1c.6.5 1.5.5 2.1 0l9.2-7c1.2-.9 2.8.6 2 1.9zm0-24.9l-8.6 13.7c-1.4 2.2-4.3 2.7-6.4 1.2l-6.8-5.1c-.6-.5-1.5-.5-2.1 0l-9.2 7c-1.2.9-2.8-.5-2-1.9l8.6-13.7c1.4-2.2 4.3-2.7 6.4-1.2l6.8 5.1c.6.5 1.5.5 2.1 0l9.2-7c1.2-.9 2.8.6 2 1.9zm0-25l-8.6 13.7c-1.4 2.2-4.3 2.7-6.4 1.2l-6.8-5.1c-.6-.5-1.5-.5-2.1 0l-9.2 7c-1.2.9-2.8-.5-2-1.9l8.6-13.7c1.4-2.2 4.3-2.7 6.4-1.2l6.8 5.1c.6.5 1.5.5 2.1 0l9.2-7c1.2-.9 2.8.6 2 1.9zm0-24.9l-8.6 13.7c-1.4 2.2-4.3 2.7-6.4 1.2l-6.8-5.1c-.6-.5-1.5-.5-2.1 0l-9.2 7c-1.2.9-2.8-.5-2-1.9l8.6-13.7c1.4-2.2 4.3-2.7 6.4-1.2l6.8 5.1c.6.5 1.5.5 2.1 0l9.2-7c1.2-.9 2.8.6 2 1.9zm35.8 174.5l-8.6 13.7c-1.4 2.2-4.3 2.7-6.4 1.2l-6.8-5.1c-.6-.5-1.5-.5-2.1 0l-9.2 7c-1.2.9-2.8-.5-2-1.9l8.6-13.7c1.4-2.2 4.3-2.7 6.4-1.2l6.8 5.1c.6.5 1.5.5 2.1 0l9.2-7c1.2-.9 2.8.6 2 1.9zm0-24.9l-8.6 13.7c-1.4 2.2-4.3 2.7-6.4 1.2l-6.8-5.1c-.6-.5-1.5-.5-2.1 0l-9.2 7c-1.2.9-2.8-.5-2-1.9l8.6-13.7c1.4-2.2 4.3-2.7 6.4-1.2l6.8 5.1c.6.5 1.5.5 2.1 0l9.2-7c1.2-.9 2.8.6 2 1.9zm0-24.9l-8.6 13.7c-1.4 2.2-4.3 2.7-6.4 1.2l-6.8-5.1c-.6-.5-1.5-.5-2.1 0l-9.2 7c-1.2.9-2.8-.5-2-1.9l8.6-13.7c1.4-2.2 4.3-2.7 6.4-1.2l6.8 5.1c.6.5 1.5.5 2.1 0l9.2-7c1.2-.9 2.8.6 2 1.9zm0-25l-8.6 13.7c-1.4 2.2-4.3 2.7-6.4 1.2l-6.8-5.1c-.6-.5-1.5-.5-2.1 0l-9.2 7c-1.2.9-2.8-.5-2-1.9l8.6-13.7c1.4-2.2 4.3-2.7 6.4-1.2l6.8 5.1c.6.5 1.5.5 2.1 0l9.2-7c1.2-.9 2.8.6 2 1.9zm0-24.9l-8.6 13.7c-1.4 2.2-4.3 2.7-6.4 1.2l-6.8-5.1c-.6-.5-1.5-.5-2.1 0l-9.2 7c-1.2.9-2.8-.5-2-1.9l8.6-13.7c1.4-2.2 4.3-2.7 6.4-1.2l6.8 5.1c.6.5 1.5.5 2.1 0l9.2-7c1.2-.9 2.8.6 2 1.9zm0-24.9l-8.6 13.7c-1.4 2.2-4.3 2.7-6.4 1.2l-6.8-5.1c-.6-.5-1.5-.5-2.1 0l-9.2 7c-1.2.9-2.8-.5-2-1.9l8.6-13.7c1.4-2.2 4.3-2.7 6.4-1.2l6.8 5.1c.6.5 1.5.5 2.1 0l9.2-7c1.2-.9 2.8.6 2 1.9zm0-25l-8.6 13.7c-1.4 2.2-4.3 2.7-6.4 1.2l-6.8-5.1c-.6-.5-1.5-.5-2.1 0l-9.2 7c-1.2.9-2.8-.5-2-1.9l8.6-13.7c1.4-2.2 4.3-2.7 6.4-1.2l6.8 5.1c.6.5 1.5.5 2.1 0l9.2-7c1.2-.9 2.8.6 2 1.9zm35.8 149.6l-8.6 13.7c-1.4 2.2-4.3 2.7-6.4 1.2l-6.8-5.1c-.6-.5-1.5-.5-2.1 0l-9.2 7c-1.2.9-2.8-.5-2-1.9l8.6-13.7c1.4-2.2 4.3-2.7 6.4-1.2l6.8 5.1c.6.5 1.5.5 2.1 0l9.2-7c1.2-.9 2.8.6 2 1.9zm0-24.9l-8.6 13.7c-1.4 2.2-4.3 2.7-6.4 1.2l-6.8-5.1c-.6-.5-1.5-.5-2.1 0l-9.2 7c-1.2.9-2.8-.5-2-1.9l8.6-13.7c1.4-2.2 4.3-2.7 6.4-1.2l6.8 5.1c.6.5 1.5.5 2.1 0l9.2-7c1.2-.9 2.8.6 2 1.9zm0-24.9l-8.6 13.7c-1.4 2.2-4.3 2.7-6.4 1.2l-6.8-5.1c-.6-.5-1.5-.5-2.1 0l-9.2 7c-1.2.9-2.8-.5-2-1.9l8.6-13.7c1.4-2.2 4.3-2.7 6.4-1.2l6.8 5.1c.6.5 1.5.5 2.1 0l9.2-7c1.2-.9 2.8.6 2 1.9zm0-25l-8.6 13.7c-1.4 2.2-4.3 2.7-6.4 1.2l-6.8-5.1c-.6-.5-1.5-.5-2.1 0l-9.2 7c-1.2.9-2.8-.5-2-1.9l8.6-13.7c1.4-2.2 4.3-2.7 6.4-1.2l6.8 5.1c.6.5 1.5.5 2.1 0l9.2-7c1.2-.9 2.8.6 2 1.9zm0-24.9l-8.6 13.7c-1.4 2.2-4.3 2.7-6.4 1.2l-6.8-5.1c-.6-.5-1.5-.5-2.1 0l-9.2 7c-1.2.9-2.8-.5-2-1.9l8.6-13.7c1.4-2.2 4.3-2.7 6.4-1.2l6.8 5.1c.6.5 1.5.5 2.1 0l9.2-7c1.2-.9 2.8.6 2 1.9zm0-24.9l-8.6 13.7c-1.4 2.2-4.3 2.7-6.4 1.2l-6.8-5.1c-.6-.5-1.5-.5-2.1 0l-9.2 7c-1.2.9-2.8-.5-2-1.9l8.6-13.7c1.4-2.2 4.3-2.7 6.4-1.2l6.8 5.1c.6.5 1.5.5 2.1 0l9.2-7c1.2-.9 2.8.6 2 1.9zm0-25l-8.6 13.7c-1.4 2.2-4.3 2.7-6.4 1.2l-6.8-5.1c-.6-.5-1.5-.5-2.1 0l-9.2 7c-1.2.9-2.8-.5-2-1.9l8.6-13.7c1.4-2.2 4.3-2.7 6.4-1.2l6.8 5.1c.6.5 1.5.5 2.1 0l9.2-7c1.2-.9 2.8.6 2 1.9zm0-24.9l-8.6 13.7c-1.4 2.2-4.3 2.7-6.4 1.2l-6.8-5.1c-.6-.5-1.5-.5-2.1 0l-9.2 7c-1.2.9-2.8-.5-2-1.9l8.6-13.7c1.4-2.2 4.3-2.7 6.4-1.2l6.8 5.1c.6.5 1.5.5 2.1 0l9.2-7c1.2-.9 2.8.6 2 1.9zm35.7 174.5l-8.6 13.7c-1.4 2.2-4.3 2.7-6.4 1.2l-6.8-5.1c-.6-.5-1.5-.5-2.1 0l-9.2 7c-1.2.9-2.8-.5-2-1.9l8.6-13.7c1.4-2.2 4.3-2.7 6.4-1.2l6.8 5.1c.6.5 1.5.5 2.1 0l9.2-7c1.3-.9 2.9.6 2 1.9zm0-24.9l-8.6 13.7c-1.4 2.2-4.3 2.7-6.4 1.2l-6.8-5.1c-.6-.5-1.5-.5-2.1 0l-9.2 7c-1.2.9-2.8-.5-2-1.9l8.6-13.7c1.4-2.2 4.3-2.7 6.4-1.2l6.8 5.1c.6.5 1.5.5 2.1 0l9.2-7c1.3-.9 2.9.6 2 1.9zm0-24.9l-8.6 13.7c-1.4 2.2-4.3 2.7-6.4 1.2l-6.8-5.1c-.6-.5-1.5-.5-2.1 0l-9.2 7c-1.2.9-2.8-.5-2-1.9l8.6-13.7c1.4-2.2 4.3-2.7 6.4-1.2l6.8 5.1c.6.5 1.5.5 2.1 0l9.2-7c1.3-.9 2.9.6 2 1.9zm0-25l-8.6 13.7c-1.4 2.2-4.3 2.7-6.4 1.2l-6.8-5.1c-.6-.5-1.5-.5-2.1 0l-9.2 7c-1.2.9-2.8-.5-2-1.9l8.6-13.7c1.4-2.2 4.3-2.7 6.4-1.2l6.8 5.1c.6.5 1.5.5 2.1 0l9.2-7c1.3-.9 2.9.6 2 1.9zm0-24.9l-8.6 13.7c-1.4 2.2-4.3 2.7-6.4 1.2l-6.8-5.1c-.6-.5-1.5-.5-2.1 0l-9.2 7c-1.2.9-2.8-.5-2-1.9l8.6-13.7c1.4-2.2 4.3-2.7 6.4-1.2l6.8 5.1c.6.5 1.5.5 2.1 0l9.2-7c1.3-.9 2.9.6 2 1.9zm0-24.9l-8.6 13.7c-1.4 2.2-4.3 2.7-6.4 1.2l-6.8-5.1c-.6-.5-1.5-.5-2.1 0l-9.2 7c-1.2.9-2.8-.5-2-1.9l8.6-13.7c1.4-2.2 4.3-2.7 6.4-1.2l6.8 5.1c.6.5 1.5.5 2.1 0l9.2-7c1.3-.9 2.9.6 2 1.9zm0-25l-8.6 13.7c-1.4 2.2-4.3 2.7-6.4 1.2l-6.8-5.1c-.6-.5-1.5-.5-2.1 0l-9.2 7c-1.2.9-2.8-.5-2-1.9l8.6-13.7c1.4-2.2 4.3-2.7 6.4-1.2l6.8 5.1c.6.5 1.5.5 2.1 0l9.2-7c1.3-.9 2.9.6 2 1.9zm0-24.9l-8.6 13.7c-1.4 2.2-4.3 2.7-6.4 1.2l-6.8-5.1c-.6-.5-1.5-.5-2.1 0l-9.2 7c-1.2.9-2.8-.5-2-1.9l8.6-13.7c1.4-2.2 4.3-2.7 6.4-1.2l6.8 5.1c.6.5 1.5.5 2.1 0l9.2-7c1.3-.9 2.9.6 2 1.9zm35.8 174.5l-8.6 13.7c-1.4 2.2-4.3 2.7-6.4 1.2l-6.8-5.1c-.6-.5-1.5-.5-2.1 0l-9.2 7c-1.2.9-2.8-.5-2-1.9l8.6-13.7c1.4-2.2 4.3-2.7 6.4-1.2l6.8 5.1c.6.5 1.5.5 2.1 0l9.2-7c1.2-.9 2.8.6 2 1.9zm0-24.9l-8.6 13.7c-1.4 2.2-4.3 2.7-6.4 1.2l-6.8-5.1c-.6-.5-1.5-.5-2.1 0l-9.2 7c-1.2.9-2.8-.5-2-1.9l8.6-13.7c1.4-2.2 4.3-2.7 6.4-1.2l6.8 5.1c.6.5 1.5.5 2.1 0l9.2-7c1.2-.9 2.8.6 2 1.9zm0-24.9l-8.6 13.7c-1.4 2.2-4.3 2.7-6.4 1.2l-6.8-5.1c-.6-.5-1.5-.5-2.1 0l-9.2 7c-1.2.9-2.8-.5-2-1.9l8.6-13.7c1.4-2.2 4.3-2.7 6.4-1.2l6.8 5.1c.6.5 1.5.5 2.1 0l9.2-7c1.2-.9 2.8.6 2 1.9zm0-25l-8.6 13.7c-1.4 2.2-4.3 2.7-6.4 1.2l-6.8-5.1c-.6-.5-1.5-.5-2.1 0l-9.2 7c-1.2.9-2.8-.5-2-1.9l8.6-13.7c1.4-2.2 4.3-2.7 6.4-1.2l6.8 5.1c.6.5 1.5.5 2.1 0l9.2-7c1.2-.9 2.8.6 2 1.9zm0-24.9l-8.6 13.7c-1.4 2.2-4.3 2.7-6.4 1.2l-6.8-5.1c-.6-.5-1.5-.5-2.1 0l-9.2 7c-1.2.9-2.8-.5-2-1.9l8.6-13.7c1.4-2.2 4.3-2.7 6.4-1.2l6.8 5.1c.6.5 1.5.5 2.1 0l9.2-7c1.2-.9 2.8.6 2 1.9zm0-24.9l-8.6 13.7c-1.4 2.2-4.3 2.7-6.4 1.2l-6.8-5.1c-.6-.5-1.5-.5-2.1 0l-9.2 7c-1.2.9-2.8-.5-2-1.9l8.6-13.7c1.4-2.2 4.3-2.7 6.4-1.2l6.8 5.1c.6.5 1.5.5 2.1 0l9.2-7c1.2-.9 2.8.6 2 1.9zm0-25l-8.6 13.7c-1.4 2.2-4.3 2.7-6.4 1.2l-6.8-5.1c-.6-.5-1.5-.5-2.1 0l-9.2 7c-1.2.9-2.8-.5-2-1.9l8.6-13.7c1.4-2.2 4.3-2.7 6.4-1.2l6.8 5.1c.6.5 1.5.5 2.1 0l9.2-7c1.2-.9 2.8.6 2 1.9zm0-24.9l-8.6 13.7c-1.4 2.2-4.3 2.7-6.4 1.2l-6.8-5.1c-.6-.5-1.5-.5-2.1 0l-9.2 7c-1.2.9-2.8-.5-2-1.9l8.6-13.7c1.4-2.2 4.3-2.7 6.4-1.2l6.8 5.1c.6.5 1.5.5 2.1 0l9.2-7c1.2-.9 2.8.6 2 1.9zm-500.9-24.6l-8.6 13.7c-1.4 2.2-4.3 2.7-6.4 1.2l-6.8-5.1c-.6-.5-1.5-.5-2.1 0l-9.2 7c-1.2.9-2.8-.5-2-1.9l8.6-13.7c1.4-2.2 4.3-2.7 6.4-1.2l6.8 5.1c.6.5 1.5.5 2.1 0l9.2-7c1.2-.8 2.9.6 2 1.9zm0-24.9l-8.6 13.7c-1.4 2.2-4.3 2.7-6.4 1.2l-6.8-5.1c-.6-.5-1.5-.5-2.1 0l-9.2 7c-1.2.9-2.8-.5-2-1.9l8.6-13.7c1.4-2.2 4.3-2.7 6.4-1.2l6.8 5.1c.6.5 1.5.5 2.1 0l9.2-7c1.2-.9 2.9.6 2 1.9zm0-24.9l-8.6 13.7c-1.4 2.2-4.3 2.7-6.4 1.2l-6.8-5.1c-.6-.5-1.5-.5-2.1 0l-9.2 7c-1.2.9-2.8-.5-2-1.9l8.6-13.7c1.4-2.2 4.3-2.7 6.4-1.2l6.8 5.1c.6.5 1.5.5 2.1 0l9.2-7c1.2-.9 2.9.6 2 1.9zm0-25l-8.6 13.7c-1.4 2.2-4.3 2.7-6.4 1.2l-6.8-5.1c-.6-.5-1.5-.5-2.1 0l-9.2 7c-1.2.9-2.8-.5-2-1.9l8.6-13.7c1.4-2.2 4.3-2.7 6.4-1.2l6.8 5.1c.6.5 1.5.5 2.1 0l9.2-7c1.2-.8 2.9.6 2 1.9zm0-24.9l-8.6 13.7c-1.4 2.2-4.3 2.7-6.4 1.2l-6.8-5.1c-.6-.5-1.5-.5-2.1 0l-9.2 7c-1.2.9-2.8-.5-2-1.9l8.6-13.7c1.4-2.2 4.3-2.7 6.4-1.2l6.8 5.1c.6.5 1.5.5 2.1 0l9.2-7c1.2-.9 2.9.6 2 1.9zm0-24.9l-8.6 13.7c-1.4 2.2-4.3 2.7-6.4 1.2l-6.8-5.1c-.6-.5-1.5-.5-2.1 0l-9.2 7c-1.2.9-2.8-.5-2-1.9l8.6-13.7c1.4-2.2 4.3-2.7 6.4-1.2l6.8 5.1c.6.5 1.5.5 2.1 0l9.2-7c1.2-.9 2.9.6 2 1.9zm0-25l-8.6 13.7c-1.4 2.2-4.3 2.7-6.4 1.2l-6.8-5.1c-.6-.5-1.5-.5-2.1 0l-9.2 7c-1.2.9-2.8-.5-2-1.9l8.6-13.7c1.4-2.2 4.3-2.7 6.4-1.2l6.8 5.1c.6.5 1.5.5 2.1 0l9.2-7c1.2-.8 2.9.6 2 1.9zm35.8 149.6l-8.6 13.7c-1.4 2.2-4.3 2.7-6.4 1.2l-6.8-5.1c-.6-.5-1.5-.5-2.1 0l-9.2 7c-1.2.9-2.8-.5-2-1.9l8.6-13.7c1.4-2.2 4.3-2.7 6.4-1.2l6.8 5.1c.6.5 1.5.5 2.1 0l9.2-7c1.2-.8 2.8.6 2 1.9zm0-24.9l-8.6 13.7c-1.4 2.2-4.3 2.7-6.4 1.2l-6.8-5.1c-.6-.5-1.5-.5-2.1 0l-9.2 7c-1.2.9-2.8-.5-2-1.9l8.6-13.7c1.4-2.2 4.3-2.7 6.4-1.2l6.8 5.1c.6.5 1.5.5 2.1 0l9.2-7c1.2-.9 2.8.6 2 1.9zm0-24.9l-8.6 13.7c-1.4 2.2-4.3 2.7-6.4 1.2l-6.8-5.1c-.6-.5-1.5-.5-2.1 0l-9.2 7c-1.2.9-2.8-.5-2-1.9l8.6-13.7c1.4-2.2 4.3-2.7 6.4-1.2l6.8 5.1c.6.5 1.5.5 2.1 0l9.2-7c1.2-.9 2.8.6 2 1.9zm0-25l-8.6 13.7c-1.4 2.2-4.3 2.7-6.4 1.2l-6.8-5.1c-.6-.5-1.5-.5-2.1 0l-9.2 7c-1.2.9-2.8-.5-2-1.9l8.6-13.7c1.4-2.2 4.3-2.7 6.4-1.2l6.8 5.1c.6.5 1.5.5 2.1 0l9.2-7c1.2-.8 2.8.6 2 1.9zm0-24.9l-8.6 13.7c-1.4 2.2-4.3 2.7-6.4 1.2l-6.8-5.1c-.6-.5-1.5-.5-2.1 0l-9.2 7c-1.2.9-2.8-.5-2-1.9l8.6-13.7c1.4-2.2 4.3-2.7 6.4-1.2l6.8 5.1c.6.5 1.5.5 2.1 0l9.2-7c1.2-.9 2.8.6 2 1.9zm0-24.9l-8.6 13.7c-1.4 2.2-4.3 2.7-6.4 1.2l-6.8-5.1c-.6-.5-1.5-.5-2.1 0l-9.2 7c-1.2.9-2.8-.5-2-1.9l8.6-13.7c1.4-2.2 4.3-2.7 6.4-1.2l6.8 5.1c.6.5 1.5.5 2.1 0l9.2-7c1.2-.9 2.8.6 2 1.9zm0-25l-8.6 13.7c-1.4 2.2-4.3 2.7-6.4 1.2l-6.8-5.1c-.6-.5-1.5-.5-2.1 0l-9.2 7c-1.2.9-2.8-.5-2-1.9l8.6-13.7c1.4-2.2 4.3-2.7 6.4-1.2l6.8 5.1c.6.5 1.5.5 2.1 0l9.2-7c1.2-.8 2.8.6 2 1.9zm35.8 149.6l-8.6 13.7c-1.4 2.2-4.3 2.7-6.4 1.2l-6.8-5.1c-.6-.5-1.5-.5-2.1 0l-9.2 7c-1.2.9-2.8-.5-2-1.9l8.6-13.7c1.4-2.2 4.3-2.7 6.4-1.2l6.8 5.1c.6.5 1.5.5 2.1 0l9.2-7c1.2-.8 2.8.6 2 1.9zm0-24.9l-8.6 13.7c-1.4 2.2-4.3 2.7-6.4 1.2l-6.8-5.1c-.6-.5-1.5-.5-2.1 0l-9.2 7c-1.2.9-2.8-.5-2-1.9l8.6-13.7c1.4-2.2 4.3-2.7 6.4-1.2l6.8 5.1c.6.5 1.5.5 2.1 0l9.2-7c1.2-.9 2.8.6 2 1.9zm0-24.9l-8.6 13.7c-1.4 2.2-4.3 2.7-6.4 1.2l-6.8-5.1c-.6-.5-1.5-.5-2.1 0l-9.2 7c-1.2.9-2.8-.5-2-1.9l8.6-13.7c1.4-2.2 4.3-2.7 6.4-1.2l6.8 5.1c.6.5 1.5.5 2.1 0l9.2-7c1.2-.9 2.8.6 2 1.9zm0-25l-8.6 13.7c-1.4 2.2-4.3 2.7-6.4 1.2l-6.8-5.1c-.6-.5-1.5-.5-2.1 0l-9.2 7c-1.2.9-2.8-.5-2-1.9l8.6-13.7c1.4-2.2 4.3-2.7 6.4-1.2l6.8 5.1c.6.5 1.5.5 2.1 0l9.2-7c1.2-.8 2.8.6 2 1.9zm0-24.9l-8.6 13.7c-1.4 2.2-4.3 2.7-6.4 1.2l-6.8-5.1c-.6-.5-1.5-.5-2.1 0l-9.2 7c-1.2.9-2.8-.5-2-1.9l8.6-13.7c1.4-2.2 4.3-2.7 6.4-1.2l6.8 5.1c.6.5 1.5.5 2.1 0l9.2-7c1.2-.9 2.8.6 2 1.9zm0-24.9l-8.6 13.7c-1.4 2.2-4.3 2.7-6.4 1.2l-6.8-5.1c-.6-.5-1.5-.5-2.1 0l-9.2 7c-1.2.9-2.8-.5-2-1.9l8.6-13.7c1.4-2.2 4.3-2.7 6.4-1.2l6.8 5.1c.6.5 1.5.5 2.1 0l9.2-7c1.2-.9 2.8.6 2 1.9zm0-25l-8.6 13.7c-1.4 2.2-4.3 2.7-6.4 1.2l-6.8-5.1c-.6-.5-1.5-.5-2.1 0l-9.2 7c-1.2.9-2.8-.5-2-1.9l8.6-13.7c1.4-2.2 4.3-2.7 6.4-1.2l6.8 5.1c.6.5 1.5.5 2.1 0l9.2-7c1.2-.8 2.8.6 2 1.9zm35.8 149.6l-8.6 13.7c-1.4 2.2-4.3 2.7-6.4 1.2l-6.8-5.1c-.6-.5-1.5-.5-2.1 0l-9.2 7c-1.2.9-2.8-.5-2-1.9l8.6-13.7c1.4-2.2 4.3-2.7 6.4-1.2l6.8 5.1c.6.5 1.5.5 2.1 0l9.2-7c1.2-.8 2.8.6 2 1.9zm0-24.9l-8.6 13.7c-1.4 2.2-4.3 2.7-6.4 1.2l-6.8-5.1c-.6-.5-1.5-.5-2.1 0l-9.2 7c-1.2.9-2.8-.5-2-1.9l8.6-13.7c1.4-2.2 4.3-2.7 6.4-1.2l6.8 5.1c.6.5 1.5.5 2.1 0l9.2-7c1.2-.9 2.8.6 2 1.9zm0-24.9l-8.6 13.7c-1.4 2.2-4.3 2.7-6.4 1.2l-6.8-5.1c-.6-.5-1.5-.5-2.1 0l-9.2 7c-1.2.9-2.8-.5-2-1.9l8.6-13.7c1.4-2.2 4.3-2.7 6.4-1.2l6.8 5.1c.6.5 1.5.5 2.1 0l9.2-7c1.2-.9 2.8.6 2 1.9zm0-25l-8.6 13.7c-1.4 2.2-4.3 2.7-6.4 1.2l-6.8-5.1c-.6-.5-1.5-.5-2.1 0l-9.2 7c-1.2.9-2.8-.5-2-1.9l8.6-13.7c1.4-2.2 4.3-2.7 6.4-1.2l6.8 5.1c.6.5 1.5.5 2.1 0l9.2-7c1.2-.8 2.8.6 2 1.9zm0-24.9l-8.6 13.7c-1.4 2.2-4.3 2.7-6.4 1.2l-6.8-5.1c-.6-.5-1.5-.5-2.1 0l-9.2 7c-1.2.9-2.8-.5-2-1.9l8.6-13.7c1.4-2.2 4.3-2.7 6.4-1.2l6.8 5.1c.6.5 1.5.5 2.1 0l9.2-7c1.2-.9 2.8.6 2 1.9zm0-24.9l-8.6 13.7c-1.4 2.2-4.3 2.7-6.4 1.2L1136 27c-.6-.5-1.5-.5-2.1 0l-9.2 7c-1.2.9-2.8-.5-2-1.9l8.6-13.7c1.4-2.2 4.3-2.7 6.4-1.2l6.8 5.1c.6.5 1.5.5 2.1 0l9.2-7c1.2-.9 2.8.6 2 1.9zm0-25l-8.6 13.7c-1.4 2.2-4.3 2.7-6.4 1.2L1136 2c-.6-.5-1.5-.5-2.1 0l-9.2 7c-1.2.9-2.8-.5-2-1.9l8.6-13.7c1.4-2.2 4.3-2.7 6.4-1.2l6.8 5.1c.6.5 1.5.5 2.1 0l9.2-7c1.2-.8 2.8.6 2 1.9zm35.7 149.6l-8.6 13.7c-1.4 2.2-4.3 2.7-6.4 1.2l-6.8-5.1c-.6-.5-1.5-.5-2.1 0l-9.2 7c-1.2.9-2.8-.5-2-1.9l8.6-13.7c1.4-2.2 4.3-2.7 6.4-1.2l6.8 5.1c.6.5 1.5.5 2.1 0l9.2-7c1.3-.8 2.9.6 2 1.9zm0-24.9l-8.6 13.7c-1.4 2.2-4.3 2.7-6.4 1.2l-6.8-5.1c-.6-.5-1.5-.5-2.1 0l-9.2 7c-1.2.9-2.8-.5-2-1.9l8.6-13.7c1.4-2.2 4.3-2.7 6.4-1.2l6.8 5.1c.6.5 1.5.5 2.1 0l9.2-7c1.3-.9 2.9.6 2 1.9zm0-24.9l-8.6 13.7c-1.4 2.2-4.3 2.7-6.4 1.2l-6.8-5.1c-.6-.5-1.5-.5-2.1 0l-9.2 7c-1.2.9-2.8-.5-2-1.9l8.6-13.7c1.4-2.2 4.3-2.7 6.4-1.2l6.8 5.1c.6.5 1.5.5 2.1 0l9.2-7c1.3-.9 2.9.6 2 1.9zm0-25l-8.6 13.7c-1.4 2.2-4.3 2.7-6.4 1.2l-6.8-5.1c-.6-.5-1.5-.5-2.1 0l-9.2 7c-1.2.9-2.8-.5-2-1.9l8.6-13.7c1.4-2.2 4.3-2.7 6.4-1.2l6.8 5.1c.6.5 1.5.5 2.1 0l9.2-7c1.3-.8 2.9.6 2 1.9zm0-24.9l-8.6 13.7c-1.4 2.2-4.3 2.7-6.4 1.2l-6.8-5.1c-.6-.5-1.5-.5-2.1 0l-9.2 7c-1.2.9-2.8-.5-2-1.9l8.6-13.7c1.4-2.2 4.3-2.7 6.4-1.2l6.8 5.1c.6.5 1.5.5 2.1 0l9.2-7c1.3-.9 2.9.6 2 1.9zm0-24.9l-8.6 13.7c-1.4 2.2-4.3 2.7-6.4 1.2l-6.8-5.1c-.6-.5-1.5-.5-2.1 0l-9.2 7c-1.2.9-2.8-.5-2-1.9l8.6-13.7c1.4-2.2 4.3-2.7 6.4-1.2l6.8 5.1c.6.5 1.5.5 2.1 0l9.2-7c1.3-.9 2.9.6 2 1.9zm0-25l-8.6 13.7c-1.4 2.2-4.3 2.7-6.4 1.2l-6.8-5.1c-.6-.5-1.5-.5-2.1 0l-9.2 7c-1.2.9-2.8-.5-2-1.9l8.6-13.7c1.4-2.2 4.3-2.7 6.4-1.2l6.8 5.1c.6.5 1.5.5 2.1 0l9.2-7c1.3-.8 2.9.6 2 1.9zm35.8 149.6l-8.6 13.7c-1.4 2.2-4.3 2.7-6.4 1.2l-6.8-5.1c-.6-.5-1.5-.5-2.1 0l-9.2 7c-1.2.9-2.8-.5-2-1.9l8.6-13.7c1.4-2.2 4.3-2.7 6.4-1.2l6.8 5.1c.6.5 1.5.5 2.1 0l9.2-7c1.2-.8 2.8.6 2 1.9zm0-24.9l-8.6 13.7c-2.1-1.5-5-1-6.4 1.2l-6.8-5.1c-.6.5-1.5.5-2.1 0l-9.2 7c.8-1.3-.8-2.8-2-1.9l8.6-13.7c2.1 1.5 5 1 6.4-1.2l6.8 5.1c.6-.5 1.5-.5 2.1 0l9.2-7c-.8 1.4.8 2.8 2 1.9zm0-24.9l-8.6 13.7c-1.4 2.2-4.3 2.7-6.4 1.2l-6.8-5.1c-.6-.5-1.5-.5-2.1 0l-9.2 7c-1.2.9-2.8-.5-2-1.9l8.6-13.7c1.4-2.2 4.3-2.7 6.4-1.2l6.8 5.1c.6.5 1.5.5 2.1 0l9.2-7c1.2-.9 2.8.6 2 1.9zm0-25l-8.6 13.7c-1.4 2.2-4.3 2.7-6.4 1.2l-6.8-5.1c-.6-.5-1.5-.5-2.1 0l-9.2 7c-1.2.9-2.8-.5-2-1.9l8.6-13.7c1.4-2.2 4.3-2.7 6.4-1.2l6.8 5.1c.6.5 1.5.5 2.1 0l9.2-7c1.2-.8 2.8.6 2 1.9zm0-24.9l-8.6 13.7c-1.4 2.2-4.3 2.7-6.4 1.2l-6.8-5.1c-.6-.5-1.5-.5-2.1 0l-9.2 7c-1.2.9-2.8-.5-2-1.9l8.6-13.7c1.4-2.2 4.3-2.7 6.4-1.2l6.8 5.1c.6.5 1.5.5 2.1 0l9.2-7c1.2-.9 2.8.6 2 1.9zm0-24.9l-8.6 13.7c-1.4 2.2-4.3 2.7-6.4 1.2l-6.8-5.1c-.6-.5-1.5-.5-2.1 0l-9.2 7c-1.2.9-2.8-.5-2-1.9l8.6-13.7c1.4-2.2 4.3-2.7 6.4-1.2l6.8 5.1c.6.5 1.5.5 2.1 0l9.2-7c1.2-.9 2.8.6 2 1.9zm0-25l-8.6 13.7c-1.4 2.2-4.3 2.7-6.4 1.2l-6.8-5.1c-.6-.5-1.5-.5-2.1 0l-9.2 7c-1.2.9-2.8-.5-2-1.9l8.6-13.7c1.4-2.2 4.3-2.7 6.4-1.2l6.8 5.1c.6.5 1.5.5 2.1 0l9.2-7c1.2-.8 2.8.6 2 1.9zm35.8 149.6l-8.6 13.7c-1.4 2.2-4.3 2.7-6.4 1.2l-6.8-5.1c-.6-.5-1.5-.5-2.1 0l-9.2 7c-1.2.9-2.8-.5-2-1.9l8.6-13.7c1.4-2.2 4.3-2.7 6.4-1.2l6.8 5.1c.6.5 1.5.5 2.1 0l9.2-7c1.2-.8 2.8.6 2 1.9zm0-24.9l-8.6 13.7c-1.4 2.2-4.3 2.7-6.4 1.2l-6.8-5.1c-.6-.5-1.5-.5-2.1 0l-9.2 7c-1.2.9-2.8-.5-2-1.9l8.6-13.7c1.4-2.2 4.3-2.7 6.4-1.2l6.8 5.1c.6.5 1.5.5 2.1 0l9.2-7c1.2-.9 2.8.6 2 1.9zm0-24.9l-8.6 13.7c-1.4 2.2-4.3 2.7-6.4 1.2l-6.8-5.1c-.6-.5-1.5-.5-2.1 0l-9.2 7c-1.2.9-2.8-.5-2-1.9l8.6-13.7c1.4-2.2 4.3-2.7 6.4-1.2l6.8 5.1c.6.5 1.5.5 2.1 0l9.2-7c1.2-.9 2.8.6 2 1.9zm0-25l-8.6 13.7c-1.4 2.2-4.3 2.7-6.4 1.2l-6.8-5.1c-.6-.5-1.5-.5-2.1 0l-9.2 7c-1.2.9-2.8-.5-2-1.9l8.6-13.7c1.4-2.2 4.3-2.7 6.4-1.2l6.8 5.1c.6.5 1.5.5 2.1 0l9.2-7c1.2-.8 2.8.6 2 1.9zm0-24.9l-8.6 13.7c-1.4 2.2-4.3 2.7-6.4 1.2l-6.8-5.1c-.6-.5-1.5-.5-2.1 0l-9.2 7c-1.2.9-2.8-.5-2-1.9l8.6-13.7c1.4-2.2 4.3-2.7 6.4-1.2l6.8 5.1c.6.5 1.5.5 2.1 0l9.2-7c1.2-.9 2.8.6 2 1.9zm0-24.9l-8.6 13.7c-1.4 2.2-4.3 2.7-6.4 1.2l-6.8-5.1c-.6-.5-1.5-.5-2.1 0l-9.2 7c-1.2.9-2.8-.5-2-1.9l8.6-13.7c1.4-2.2 4.3-2.7 6.4-1.2l6.8 5.1c.6.5 1.5.5 2.1 0l9.2-7c1.2-.9 2.8.6 2 1.9zm0-25l-8.6 13.7c-1.4 2.2-4.3 2.7-6.4 1.2l-6.8-5.1c-.6-.5-1.5-.5-2.1 0l-9.2 7c-1.2.9-2.8-.5-2-1.9l8.6-13.7c1.4-2.2 4.3-2.7 6.4-1.2l6.8 5.1c.6.5 1.5.5 2.1 0l9.2-7c1.2-.8 2.8.6 2 1.9zm35.8 149.6l-8.6 13.7c-1.4 2.2-4.3 2.7-6.4 1.2l-6.8-5.1c-.6-.5-1.5-.5-2.1 0l-9.2 7c-1.2.9-2.8-.5-2-1.9l8.6-13.7c1.4-2.2 4.3-2.7 6.4-1.2l6.8 5.1c.6.5 1.5.5 2.1 0l9.2-7c1.2-.8 2.8.6 2 1.9zm0-24.9l-8.6 13.7c-1.4 2.2-4.3 2.7-6.4 1.2l-6.8-5.1c-.6-.5-1.5-.5-2.1 0l-9.2 7c-1.2.9-2.8-.5-2-1.9l8.6-13.7c1.4-2.2 4.3-2.7 6.4-1.2l6.8 5.1c.6.5 1.5.5 2.1 0l9.2-7c1.2-.9 2.8.6 2 1.9zm0-24.9l-8.6 13.7c-1.4 2.2-4.3 2.7-6.4 1.2l-6.8-5.1c-.6-.5-1.5-.5-2.1 0l-9.2 7c-1.2.9-2.8-.5-2-1.9l8.6-13.7c1.4-2.2 4.3-2.7 6.4-1.2l6.8 5.1c.6.5 1.5.5 2.1 0l9.2-7c1.2-.9 2.8.6 2 1.9zm0-25l-8.6 13.7c-1.4 2.2-4.3 2.7-6.4 1.2l-6.8-5.1c-.6-.5-1.5-.5-2.1 0l-9.2 7c-1.2.9-2.8-.5-2-1.9l8.6-13.7c1.4-2.2 4.3-2.7 6.4-1.2l6.8 5.1c.6.5 1.5.5 2.1 0l9.2-7c1.2-.8 2.8.6 2 1.9zm0-24.9l-8.6 13.7c-1.4 2.2-4.3 2.7-6.4 1.2l-6.8-5.1c-.6-.5-1.5-.5-2.1 0l-9.2 7c-1.2.9-2.8-.5-2-1.9l8.6-13.7c1.4-2.2 4.3-2.7 6.4-1.2l6.8 5.1c.6.5 1.5.5 2.1 0l9.2-7c1.2-.9 2.8.6 2 1.9zm0-24.9l-8.6 13.7c-1.4 2.2-4.3 2.7-6.4 1.2l-6.8-5.1c-.6-.5-1.5-.5-2.1 0l-9.2 7c-1.2.9-2.8-.5-2-1.9l8.6-13.7c1.4-2.2 4.3-2.7 6.4-1.2l6.8 5.1c.6.5 1.5.5 2.1 0l9.2-7c1.2-.9 2.8.6 2 1.9zm0-25l-8.6 13.7c-1.4 2.2-4.3 2.7-6.4 1.2l-6.8-5.1c-.6-.5-1.5-.5-2.1 0l-9.2 7c-1.2.9-2.8-.5-2-1.9l8.6-13.7c1.4-2.2 4.3-2.7 6.4-1.2l6.8 5.1c.6.5 1.5.5 2.1 0l9.2-7c1.2-.8 2.8.6 2 1.9zm35.7 149.6l-8.6 13.7c-1.4 2.2-4.3 2.7-6.4 1.2l-6.8-5.1c-.6-.5-1.5-.5-2.1 0l-9.2 7c-1.2.9-2.8-.5-2-1.9l8.6-13.7c1.4-2.2 4.3-2.7 6.4-1.2l6.8 5.1c.6.5 1.5.5 2.1 0l9.2-7c1.3-.8 2.9.6 2 1.9zm0-24.9l-8.6 13.7c-1.4 2.2-4.3 2.7-6.4 1.2l-6.8-5.1c-.6-.5-1.5-.5-2.1 0l-9.2 7c-1.2.9-2.8-.5-2-1.9l8.6-13.7c1.4-2.2 4.3-2.7 6.4-1.2l6.8 5.1c.6.5 1.5.5 2.1 0l9.2-7c1.3-.9 2.9.6 2 1.9zm0-24.9l-8.6 13.7c-1.4 2.2-4.3 2.7-6.4 1.2l-6.8-5.1c-.6-.5-1.5-.5-2.1 0l-9.2 7c-1.2.9-2.8-.5-2-1.9l8.6-13.7c1.4-2.2 4.3-2.7 6.4-1.2l6.8 5.1c.6.5 1.5.5 2.1 0l9.2-7c1.3-.9 2.9.6 2 1.9zm0-25l-8.6 13.7c-1.4 2.2-4.3 2.7-6.4 1.2l-6.8-5.1c-.6-.5-1.5-.5-2.1 0l-9.2 7c-1.2.9-2.8-.5-2-1.9l8.6-13.7c1.4-2.2 4.3-2.7 6.4-1.2l6.8 5.1c.6.5 1.5.5 2.1 0l9.2-7c1.3-.8 2.9.6 2 1.9zm0-24.9l-8.6 13.7c-1.4 2.2-4.3 2.7-6.4 1.2l-6.8-5.1c-.6-.5-1.5-.5-2.1 0l-9.2 7c-1.2.9-2.8-.5-2-1.9l8.6-13.7c1.4-2.2 4.3-2.7 6.4-1.2l6.8 5.1c.6.5 1.5.5 2.1 0l9.2-7c1.3-.9 2.9.6 2 1.9zm0-24.9l-8.6 13.7c-1.4 2.2-4.3 2.7-6.4 1.2l-6.8-5.1c-.6-.5-1.5-.5-2.1 0l-9.2 7c-1.2.9-2.8-.5-2-1.9l8.6-13.7c1.4-2.2 4.3-2.7 6.4-1.2l6.8 5.1c.6.5 1.5.5 2.1 0l9.2-7c1.3-.9 2.9.6 2 1.9zm0-25L1328 5.9c-1.4 2.2-4.3 2.7-6.4 1.2l-6.8-5.1c-.6-.5-1.5-.5-2.1 0l-9.2 7c-1.2.9-2.8-.5-2-1.9l8.6-13.7c1.4-2.2 4.3-2.7 6.4-1.2l6.8 5.1c.6.5 1.5.5 2.1 0l9.2-7c1.3-.8 2.9.6 2 1.9zm35.8 149.6l-8.6 13.7c-1.4 2.2-4.3 2.7-6.4 1.2l-6.8-5.1c-.6-.5-1.5-.5-2.1 0l-9.2 7c-1.2.9-2.8-.5-2-1.9l8.6-13.7c1.4-2.2 4.3-2.7 6.4-1.2l6.8 5.1c.6.5 1.5.5 2.1 0l9.2-7c1.2-.8 2.9.6 2 1.9zm0-24.9l-8.6 13.7c-1.4 2.2-4.3 2.7-6.4 1.2l-6.8-5.1c-.6-.5-1.5-.5-2.1 0l-9.2 7c-1.2.9-2.8-.5-2-1.9l8.6-13.7c1.4-2.2 4.3-2.7 6.4-1.2l6.8 5.1c.6.5 1.5.5 2.1 0l9.2-7c1.2-.9 2.9.6 2 1.9zm0-24.9l-8.6 13.7c-1.4 2.2-4.3 2.7-6.4 1.2l-6.8-5.1c-.6-.5-1.5-.5-2.1 0l-9.2 7c-1.2.9-2.8-.5-2-1.9l8.6-13.7c1.4-2.2 4.3-2.7 6.4-1.2l6.8 5.1c.6.5 1.5.5 2.1 0l9.2-7c1.2-.9 2.9.6 2 1.9zm0-25l-8.6 13.7c-1.4 2.2-4.3 2.7-6.4 1.2l-6.8-5.1c-.6-.5-1.5-.5-2.1 0l-9.2 7c-1.2.9-2.8-.5-2-1.9l8.6-13.7c1.4-2.2 4.3-2.7 6.4-1.2l6.8 5.1c.6.5 1.5.5 2.1 0l9.2-7c1.2-.8 2.9.6 2 1.9zm0-24.9l-8.6 13.7c-1.4 2.2-4.3 2.7-6.4 1.2l-6.8-5.1c-.6-.5-1.5-.5-2.1 0l-9.2 7c-1.2.9-2.8-.5-2-1.9l8.6-13.7c1.4-2.2 4.3-2.7 6.4-1.2l6.8 5.1c.6.5 1.5.5 2.1 0l9.2-7c1.2-.9 2.9.6 2 1.9zm0-24.9l-8.6 13.7c-1.4 2.2-4.3 2.7-6.4 1.2l-6.8-5.1c-.6-.5-1.5-.5-2.1 0l-9.2 7c-1.2.9-2.8-.5-2-1.9l8.6-13.7c1.4-2.2 4.3-2.7 6.4-1.2l6.8 5.1c.6.5 1.5.5 2.1 0l9.2-7c1.2-.9 2.9.6 2 1.9zm0-25l-8.6 13.7c-1.4 2.2-4.3 2.7-6.4 1.2l-6.8-5.1c-.6-.5-1.5-.5-2.1 0l-9.2 7c-1.2.9-2.8-.5-2-1.9l8.6-13.7c1.4-2.2 4.3-2.7 6.4-1.2l6.8 5.1c.6.5 1.5.5 2.1 0l9.2-7c1.2-.8 2.9.6 2 1.9zm35.8 149.6l-8.6 13.7c-1.4 2.2-4.3 2.7-6.4 1.2l-6.8-5.1c-.6-.5-1.5-.5-2.1 0l-9.2 7c-1.2.9-2.8-.5-2-1.9l8.6-13.7c1.4-2.2 4.3-2.7 6.4-1.2l6.8 5.1c.6.5 1.5.5 2.1 0l9.2-7c1.2-.8 2.8.6 2 1.9zm0-24.9l-8.6 13.7c-1.4 2.2-4.3 2.7-6.4 1.2l-6.8-5.1c-.6-.5-1.5-.5-2.1 0l-9.2 7c-1.2.9-2.8-.5-2-1.9l8.6-13.7c1.4-2.2 4.3-2.7 6.4-1.2l6.8 5.1c.6.5 1.5.5 2.1 0l9.2-7c1.2-.9 2.8.6 2 1.9zm0-24.9l-8.6 13.7c-1.4 2.2-4.3 2.7-6.4 1.2l-6.8-5.1c-.6-.5-1.5-.5-2.1 0l-9.2 7c-1.2.9-2.8-.5-2-1.9l8.6-13.7c1.4-2.2 4.3-2.7 6.4-1.2l6.8 5.1c.6.5 1.5.5 2.1 0l9.2-7c1.2-.9 2.8.6 2 1.9zm0-25l-8.6 13.7c-1.4 2.2-4.3 2.7-6.4 1.2l-6.8-5.1c-.6-.5-1.5-.5-2.1 0l-9.2 7c-1.2.9-2.8-.5-2-1.9l8.6-13.7c1.4-2.2 4.3-2.7 6.4-1.2l6.8 5.1c.6.5 1.5.5 2.1 0l9.2-7c1.2-.8 2.8.6 2 1.9zm0-24.9l-8.6 13.7c-1.4 2.2-4.3 2.7-6.4 1.2l-6.8-5.1c-.6-.5-1.5-.5-2.1 0l-9.2 7c-1.2.9-2.8-.5-2-1.9l8.6-13.7c1.4-2.2 4.3-2.7 6.4-1.2l6.8 5.1c.6.5 1.5.5 2.1 0l9.2-7c1.2-.9 2.8.6 2 1.9zm0-24.9l-8.6 13.7c-1.4 2.2-4.3 2.7-6.4 1.2l-6.8-5.1c-.6-.5-1.5-.5-2.1 0l-9.2 7c-1.2.9-2.8-.5-2-1.9l8.6-13.7c1.4-2.2 4.3-2.7 6.4-1.2l6.8 5.1c.6.5 1.5.5 2.1 0l9.2-7c1.2-.9 2.8.6 2 1.9zm0-25l-8.6 13.7c-1.4 2.2-4.3 2.7-6.4 1.2l-6.8-5.1c-.6-.5-1.5-.5-2.1 0l-9.2 7c-1.2.9-2.8-.5-2-1.9l8.6-13.7c1.4-2.2 4.3-2.7 6.4-1.2l6.8 5.1c.6.5 1.5.5 2.1 0l9.2-7c1.2-.8 2.8.6 2 1.9zm35.8 174.6l-8.6 13.7c-1.4 2.2-4.3 2.7-6.4 1.2l-6.8-5.1c-.6-.5-1.5-.5-2.1 0l-9.2 7c-1.2.9-2.8-.5-2-1.9l8.6-13.7c1.4-2.2 4.3-2.7 6.4-1.2l6.8 5.1c.6.5 1.5.5 2.1 0l9.2-7c1.2-.9 2.8.6 2 1.9zm0-25l-8.6 13.7c-1.4 2.2-4.3 2.7-6.4 1.2l-6.8-5.1c-.6-.5-1.5-.5-2.1 0l-9.2 7c-1.2.9-2.8-.5-2-1.9l8.6-13.7c1.4-2.2 4.3-2.7 6.4-1.2l6.8 5.1c.6.5 1.5.5 2.1 0l9.2-7c1.2-.8 2.8.6 2 1.9zm0-24.9l-8.6 13.7c-1.4 2.2-4.3 2.7-6.4 1.2l-6.8-5.1c-.6-.5-1.5-.5-2.1 0l-9.2 7c-1.2.9-2.8-.5-2-1.9l8.6-13.7c1.4-2.2 4.3-2.7 6.4-1.2l6.8 5.1c.6.5 1.5.5 2.1 0l9.2-7c1.2-.9 2.8.6 2 1.9zm0-24.9l-8.6 13.7c-1.4 2.2-4.3 2.7-6.4 1.2l-6.8-5.1c-.6-.5-1.5-.5-2.1 0l-9.2 7c-1.2.9-2.8-.5-2-1.9l8.6-13.7c1.4-2.2 4.3-2.7 6.4-1.2l6.8 5.1c.6.5 1.5.5 2.1 0l9.2-7c1.2-.9 2.8.6 2 1.9zm0-25l-8.6 13.7c-1.4 2.2-4.3 2.7-6.4 1.2l-6.8-5.1c-.6-.5-1.5-.5-2.1 0l-9.2 7c-1.2.9-2.8-.5-2-1.9l8.6-13.7c1.4-2.2 4.3-2.7 6.4-1.2l6.8 5.1c.6.5 1.5.5 2.1 0l9.2-7c1.2-.8 2.8.6 2 1.9zm0-24.9l-8.6 13.7c-1.4 2.2-4.3 2.7-6.4 1.2l-6.8-5.1c-.6-.5-1.5-.5-2.1 0l-9.2 7c-1.2.9-2.8-.5-2-1.9l8.6-13.7c1.4-2.2 4.3-2.7 6.4-1.2l6.8 5.1c.6.5 1.5.5 2.1 0l9.2-7c1.2-.9 2.8.6 2 1.9zm0-24.9l-8.6 13.7c-1.4 2.2-4.3 2.7-6.4 1.2l-6.8-5.1c-.6-.5-1.5-.5-2.1 0l-9.2 7c-1.2.9-2.8-.5-2-1.9l8.6-13.7c1.4-2.2 4.3-2.7 6.4-1.2l6.8 5.1c.6.5 1.5.5 2.1 0l9.2-7c1.2-.9 2.8.6 2 1.9zm0-25l-8.6 13.7c-1.4 2.2-4.3 2.7-6.4 1.2l-6.8-5.1c-.6-.5-1.5-.5-2.1 0l-9.2 7c-1.2.9-2.8-.5-2-1.9l8.6-13.7c1.4-2.2 4.3-2.7 6.4-1.2l6.8 5.1c.6.5 1.5.5 2.1 0l9.2-7c1.2-.8 2.8.6 2 1.9zm35.8 149.6l-8.6 13.7c-1.4 2.2-4.3 2.7-6.4 1.2l-6.8-5.1c-.6-.5-1.5-.5-2.1 0l-9.2 7c-1.2.9-2.8-.5-2-1.9l8.6-13.7c1.4-2.2 4.3-2.7 6.4-1.2l6.8 5.1c.6.5 1.5.5 2.1 0l9.2-7c1.2-.8 2.8.6 2 1.9zm0-24.9l-8.6 13.7c-1.4 2.2-4.3 2.7-6.4 1.2l-6.8-5.1c-.6-.5-1.5-.5-2.1 0l-9.2 7c-1.2.9-2.8-.5-2-1.9l8.6-13.7c1.4-2.2 4.3-2.7 6.4-1.2l6.8 5.1c.6.5 1.5.5 2.1 0l9.2-7c1.2-.9 2.8.6 2 1.9zm0-24.9l-8.6 13.7c-1.4 2.2-4.3 2.7-6.4 1.2l-6.8-5.1c-.6-.5-1.5-.5-2.1 0l-9.2 7c-1.2.9-2.8-.5-2-1.9l8.6-13.7c1.4-2.2 4.3-2.7 6.4-1.2l6.8 5.1c.6.5 1.5.5 2.1 0l9.2-7c1.2-.9 2.8.6 2 1.9zm0-25l-8.6 13.7c-1.4 2.2-4.3 2.7-6.4 1.2l-6.8-5.1c-.6-.5-1.5-.5-2.1 0l-9.2 7c-1.2.9-2.8-.5-2-1.9l8.6-13.7c1.4-2.2 4.3-2.7 6.4-1.2l6.8 5.1c.6.5 1.5.5 2.1 0l9.2-7c1.2-.8 2.8.6 2 1.9zm0-24.9l-8.6 13.7c-1.4 2.2-4.3 2.7-6.4 1.2l-6.8-5.1c-.6-.5-1.5-.5-2.1 0l-9.2 7c-1.2.9-2.8-.5-2-1.9l8.6-13.7c1.4-2.2 4.3-2.7 6.4-1.2l6.8 5.1c.6.5 1.5.5 2.1 0l9.2-7c1.2-.9 2.8.6 2 1.9zm0-24.9l-8.6 13.7c-1.4 2.2-4.3 2.7-6.4 1.2L1458 27c-.6-.5-1.5-.5-2.1 0l-9.2 7c-1.2.9-2.8-.5-2-1.9l8.6-13.7c1.4-2.2 4.3-2.7 6.4-1.2l6.8 5.1c.6.5 1.5.5 2.1 0l9.2-7c1.2-.9 2.8.6 2 1.9zm0-25l-8.6 13.7c-1.4 2.2-4.3 2.7-6.4 1.2L1458 2c-.6-.5-1.5-.5-2.1 0l-9.2 7c-1.2.9-2.8-.5-2-1.9l8.6-13.7c1.4-2.2 4.3-2.7 6.4-1.2l6.8 5.1c.6.5 1.5.5 2.1 0l9.2-7c1.2-.8 2.8.6 2 1.9z"/><path class="st2" d="M1515.5 166.8l-8.6 13.7c-1.4 2.2-4.3 2.7-6.4 1.2l-6.8-5.1c-.6-.5-1.5-.5-2.1 0l-9.2 7c-1.2.9-2.8-.5-2-1.9l8.6-13.7c1.4-2.2 4.3-2.7 6.4-1.2l6.8 5.1c.6.5 1.5.5 2.1 0l9.2-7c1.3-.9 2.9.6 2 1.9zm0-25l-8.6 13.7c-1.4 2.2-4.3 2.7-6.4 1.2l-6.8-5.1c-.6-.5-1.5-.5-2.1 0l-9.2 7c-1.2.9-2.8-.5-2-1.9l8.6-13.7c1.4-2.2 4.3-2.7 6.4-1.2l6.8 5.1c.6.5 1.5.5 2.1 0l9.2-7c1.3-.8 2.9.6 2 1.9zm0-24.9l-8.6 13.7c-1.4 2.2-4.3 2.7-6.4 1.2l-6.8-5.1c-.6-.5-1.5-.5-2.1 0l-9.2 7c-1.2.9-2.8-.5-2-1.9l8.6-13.7c1.4-2.2 4.3-2.7 6.4-1.2l6.8 5.1c.6.5 1.5.5 2.1 0l9.2-7c1.3-.9 2.9.6 2 1.9zm0-24.9l-8.6 13.7c-1.4 2.2-4.3 2.7-6.4 1.2l-6.8-5.1c-.6-.5-1.5-.5-2.1 0l-9.2 7c-1.2.9-2.8-.5-2-1.9l8.6-13.7c1.4-2.2 4.3-2.7 6.4-1.2l6.8 5.1c.6.5 1.5.5 2.1 0l9.2-7c1.3-.9 2.9.6 2 1.9zm0-25l-8.6 13.7c-1.4 2.2-4.3 2.7-6.4 1.2l-6.8-5.1c-.6-.5-1.5-.5-2.1 0l-9.2 7c-1.2.9-2.8-.5-2-1.9l8.6-13.7c1.4-2.2 4.3-2.7 6.4-1.2l6.8 5.1c.6.5 1.5.5 2.1 0l9.2-7c1.3-.8 2.9.6 2 1.9zm0-24.9l-8.6 13.7c-1.4 2.2-4.3 2.7-6.4 1.2l-6.8-5.1c-.6-.5-1.5-.5-2.1 0l-9.2 7c-1.2.9-2.8-.5-2-1.9l8.6-13.7c1.4-2.2 4.3-2.7 6.4-1.2l6.8 5.1c.6.5 1.5.5 2.1 0l9.2-7c1.3-.9 2.9.6 2 1.9zm0-24.9l-8.6 13.7c-1.4 2.2-4.3 2.7-6.4 1.2l-6.8-5.1c-.6-.5-1.5-.5-2.1 0l-9.2 7c-1.2.9-2.8-.5-2-1.9l8.6-13.7c1.4-2.2 4.3-2.7 6.4-1.2l6.8 5.1c.6.5 1.5.5 2.1 0l9.2-7c1.3-.9 2.9.6 2 1.9zm0-25l-8.6 13.7c-1.4 2.2-4.3 2.7-6.4 1.2l-6.8-5.1c-.6-.5-1.5-.5-2.1 0l-9.2 7c-1.2.9-2.8-.5-2-1.9l8.6-13.7c1.4-2.2 4.3-2.7 6.4-1.2l6.8 5.1c.6.5 1.5.5 2.1 0l9.2-7c1.3-.8 2.9.6 2 1.9zm35.8 174.6l-8.6 13.7c-1.4 2.2-4.3 2.7-6.4 1.2l-6.8-5.1c-.6-.5-1.5-.5-2.1 0l-9.2 7c-1.2.9-2.8-.5-2-1.9l8.6-13.7c1.4-2.2 4.3-2.7 6.4-1.2l6.8 5.1c.6.5 1.5.5 2.1 0l9.2-7c1.2-.9 2.8.6 2 1.9zm0-25l-8.6 13.7c-1.4 2.2-4.3 2.7-6.4 1.2l-6.8-5.1c-.6-.5-1.5-.5-2.1 0l-9.2 7c-1.2.9-2.8-.5-2-1.9l8.6-13.7c1.4-2.2 4.3-2.7 6.4-1.2l6.8 5.1c.6.5 1.5.5 2.1 0l9.2-7c1.2-.8 2.8.6 2 1.9zm0-24.9l-8.6 13.7c-1.4 2.2-4.3 2.7-6.4 1.2l-6.8-5.1c-.6-.5-1.5-.5-2.1 0l-9.2 7c-1.2.9-2.8-.5-2-1.9l8.6-13.7c1.4-2.2 4.3-2.7 6.4-1.2l6.8 5.1c.6.5 1.5.5 2.1 0l9.2-7c1.2-.9 2.8.6 2 1.9zm0-24.9l-8.6 13.7c-1.4 2.2-4.3 2.7-6.4 1.2l-6.8-5.1c-.6-.5-1.5-.5-2.1 0l-9.2 7c-1.2.9-2.8-.5-2-1.9l8.6-13.7c1.4-2.2 4.3-2.7 6.4-1.2l6.8 5.1c.6.5 1.5.5 2.1 0l9.2-7c1.2-.9 2.8.6 2 1.9zm0-25l-8.6 13.7c-1.4 2.2-4.3 2.7-6.4 1.2l-6.8-5.1c-.6-.5-1.5-.5-2.1 0l-9.2 7c-1.2.9-2.8-.5-2-1.9l8.6-13.7c1.4-2.2 4.3-2.7 6.4-1.2l6.8 5.1c.6.5 1.5.5 2.1 0l9.2-7c1.2-.8 2.8.6 2 1.9zm0-24.9l-8.6 13.7c-1.4 2.2-4.3 2.7-6.4 1.2l-6.8-5.1c-.6-.5-1.5-.5-2.1 0l-9.2 7c-1.2.9-2.8-.5-2-1.9l8.6-13.7c1.4-2.2 4.3-2.7 6.4-1.2l6.8 5.1c.6.5 1.5.5 2.1 0l9.2-7c1.2-.9 2.8.6 2 1.9zm0-24.9l-8.6 13.7c-1.4 2.2-4.3 2.7-6.4 1.2l-6.8-5.1c-.6-.5-1.5-.5-2.1 0l-9.2 7c-1.2.9-2.8-.5-2-1.9l8.6-13.7c1.4-2.2 4.3-2.7 6.4-1.2l6.8 5.1c.6.5 1.5.5 2.1 0l9.2-7c1.2-.9 2.8.6 2 1.9zm0-25l-8.6 13.7c-1.4 2.2-4.3 2.7-6.4 1.2l-6.8-5.1c-.6-.5-1.5-.5-2.1 0l-9.2 7c-1.2.9-2.8-.5-2-1.9l8.6-13.7c1.4-2.2 4.3-2.7 6.4-1.2l6.8 5.1c.6.5 1.5.5 2.1 0l9.2-7c1.2-.8 2.8.6 2 1.9z"/></g></svg>